<svg width="285" height="74" viewBox="0 0 285 74" fill="none" xmlns="http://www.w3.org/2000/svg">
<g clip-path="url(#clip0_538_13246)">
<path fill-rule="evenodd" clip-rule="evenodd" d="M273.878 54.4356C273.211 54.8456 272.404 55.0501 271.458 55.0501C269.651 55.0501 268.297 54.209 267.394 52.5279L251.971 23.1027V52.7859C251.971 53.4761 251.637 54.0267 250.972 54.4356C250.304 54.8456 249.498 55.0501 248.551 55.0501C247.648 55.0501 246.851 54.8456 246.164 54.4356C245.476 54.0267 245.132 53.4761 245.132 52.7859V10.0388C245.132 8.53014 246.272 7.77613 248.551 7.77613C249.755 7.77613 250.723 8.04557 251.456 8.58474C252.186 9.12357 252.94 10.147 253.715 11.656L268.038 39.6582V9.97497C268.038 9.24204 268.371 8.69287 269.039 8.32564C269.705 7.95955 270.512 7.77613 271.458 7.77613C272.404 7.77613 273.211 7.95955 273.878 8.32564C274.545 8.69287 274.878 9.24204 274.878 9.97497V52.7859C274.878 53.4761 274.545 54.0267 273.878 54.4356ZM207.385 55.0501C206.482 55.0501 205.685 54.8456 204.998 54.4356C204.309 54.0267 203.964 53.4761 203.964 52.7859V21.7449L195.318 37.7823C194.673 38.8172 193.835 39.3353 192.802 39.3353C191.77 39.3353 190.995 38.8172 190.479 37.7823L181.833 21.3567V52.7859C181.833 53.4761 181.498 54.0267 180.833 54.4356C180.165 54.8456 179.359 55.0501 178.413 55.0501C177.509 55.0501 176.713 54.8456 176.025 54.4356C175.336 54.0267 174.993 53.4761 174.993 52.7859V11.2028C174.993 10.0388 175.315 9.17709 175.961 8.61576C176.606 8.05626 177.422 7.77613 178.413 7.77613C179.659 7.77613 180.681 8.04557 181.478 8.58474C182.273 9.12357 183.058 10.147 183.833 11.656L192.867 28.7936L202.029 11.656C202.804 10.147 203.578 9.12357 204.352 8.58474C205.126 8.04557 206.136 7.77613 207.385 7.77613C208.375 7.77613 209.192 8.05626 209.837 8.61576C210.481 9.17709 210.805 10.0388 210.805 11.2028V52.7859C210.805 53.4761 210.471 54.0267 209.804 54.4356C209.138 54.8456 208.33 55.0501 207.385 55.0501ZM153.828 55.5667C149.87 55.5667 146.505 54.7375 143.73 53.0775C140.956 51.4175 139.568 49.7043 139.568 47.9361C139.568 47.1172 139.868 46.2983 140.471 45.4778C141.073 44.6604 141.762 44.2504 142.537 44.2504C143.01 44.2504 143.579 44.5264 144.246 45.0797C144.913 45.6318 145.569 46.2278 146.215 46.8685C146.86 47.5091 147.837 48.1066 149.15 48.6598C150.462 49.212 151.936 49.4881 153.571 49.4881C156.022 49.4881 157.99 48.9035 159.474 47.7332C160.959 46.5625 161.701 44.8505 161.701 42.5956C161.701 40.5163 160.98 38.7821 159.54 37.394C158.098 36.0089 156.355 34.9037 154.313 34.0781C152.268 33.2555 150.215 32.366 148.15 31.4131C146.085 30.4588 144.332 29.029 142.892 27.1217C141.45 25.2144 140.73 22.8307 140.73 19.969C140.73 17.6894 141.171 15.7116 142.053 14.0335C142.934 12.3565 144.128 11.0663 145.634 10.1624C147.139 9.25901 148.72 8.60285 150.376 8.1954C152.032 7.78647 153.785 7.58203 155.635 7.58203C156.797 7.58203 158.012 7.65618 159.281 7.80601C160.55 7.95589 161.808 8.20055 163.055 8.54156C164.303 8.88292 165.335 9.37376 166.153 10.013C166.969 10.6522 167.379 11.3774 167.379 12.1871C167.379 12.9983 167.121 13.8147 166.605 14.6373C166.089 15.4618 165.4 15.8729 164.54 15.8729C164.109 15.8729 163.528 15.6673 162.798 15.2558C162.066 14.8432 161.087 14.4317 159.862 14.0191C158.636 13.6076 157.226 13.402 155.635 13.402C153.183 13.402 151.226 13.89 149.764 14.8654C148.3 15.8418 147.569 17.3259 147.569 19.3191C147.569 20.62 147.957 21.7368 148.732 22.668C149.505 23.6002 150.506 24.3697 151.731 24.9764C152.957 25.5828 154.322 26.1792 155.829 26.7652C157.334 27.3498 158.83 28.0318 160.313 28.8117C161.797 29.5915 163.153 30.4927 164.379 31.5105C165.604 32.5288 166.605 33.9286 167.379 35.7041C168.153 37.4815 168.541 39.5412 168.541 41.8807C168.541 46.3359 167.195 49.7316 164.507 52.0659C161.819 54.4002 158.259 55.5667 153.828 55.5667ZM120.792 55.5667C116.833 55.5667 113.468 54.7375 110.693 53.0775C107.919 51.4175 106.532 49.7043 106.532 47.9361C106.532 47.1172 106.832 46.2983 107.435 45.4778C108.037 44.6604 108.725 44.2504 109.499 44.2504C109.972 44.2504 110.542 44.5264 111.21 45.0797C111.876 45.6318 112.532 46.2278 113.178 46.8685C113.823 47.5091 114.801 48.1066 116.114 48.6598C117.426 49.212 118.899 49.4881 120.534 49.4881C122.985 49.4881 124.954 48.9035 126.437 47.7332C127.922 46.5625 128.664 44.8505 128.664 42.5956C128.664 40.5163 127.942 38.7821 126.502 37.394C125.061 36.0089 123.318 34.9037 121.276 34.0781C119.232 33.2555 117.179 32.366 115.113 31.4131C113.048 30.4588 111.296 29.029 109.854 27.1217C108.413 25.2144 107.693 22.8307 107.693 19.969C107.693 17.6894 108.134 15.7116 109.016 14.0335C109.897 12.3565 111.09 11.0663 112.597 10.1624C114.102 9.25901 115.683 8.60285 117.34 8.1954C118.995 7.78647 120.748 7.58203 122.599 7.58203C123.76 7.58203 124.975 7.65618 126.244 7.80601C127.512 7.95589 128.77 8.20055 130.019 8.54156C131.266 8.88292 132.298 9.37376 133.116 10.013C133.934 10.6522 134.343 11.3774 134.343 12.1871C134.343 12.9983 134.084 13.8147 133.568 14.6373C133.052 15.4618 132.363 15.8729 131.503 15.8729C131.072 15.8729 130.491 15.6673 129.761 15.2558C129.029 14.8432 128.05 14.4317 126.825 14.0191C125.599 13.6076 124.19 13.402 122.599 13.402C120.146 13.402 118.189 13.89 116.727 14.8654C115.264 15.8418 114.532 17.3259 114.532 19.3191C114.532 20.62 114.92 21.7368 115.695 22.668C116.469 23.6002 117.469 24.3697 118.694 24.9764C119.92 25.5828 121.286 26.1792 122.793 26.7652C124.298 27.3498 125.793 28.0318 127.277 28.8117C128.76 29.5915 130.116 30.4927 131.341 31.5105C132.567 32.5288 133.568 33.9286 134.343 35.7041C135.116 37.4815 135.503 39.5412 135.503 41.8807C135.503 46.3359 134.158 49.7316 131.47 52.0659C128.782 54.4002 125.222 55.5667 120.792 55.5667ZM86.3995 55.438C82.0124 55.438 78.5055 54.274 75.8825 51.9459C73.2569 49.6169 71.9456 45.9742 71.9456 41.0163V22.1977C71.9456 17.2398 73.2569 13.5958 75.8825 11.2681C78.5055 8.94016 82.0124 7.77613 86.3995 7.77613C90.7873 7.77613 94.305 8.94016 96.9501 11.2681C99.5952 13.5958 100.918 17.2398 100.918 22.1977V41.0163C100.918 45.9742 99.5952 49.6169 96.9501 51.9459C94.305 54.274 90.7873 55.438 86.3995 55.438ZM94.0787 22.1977C94.0787 19.3948 93.4104 17.3052 92.0784 15.9238C90.7446 14.545 88.8523 13.8549 86.3995 13.8549C81.3238 13.8549 78.7851 16.6361 78.7851 22.1977V41.0163C78.7851 46.578 81.3238 49.3593 86.3995 49.3593C88.8523 49.3593 90.7446 48.6691 92.0784 47.2892C93.4104 45.9104 94.0787 43.8193 94.0787 41.0163V22.1977ZM65.8806 51.7404C65.8806 52.6047 65.4399 53.4056 64.5586 54.1411C63.6761 54.8767 62.7402 55.2438 61.751 55.2438C60.632 55.2438 59.7286 54.5733 59.0411 53.2325L49.6201 34.6785H43.1026V52.7793C43.1026 53.472 42.77 54.0226 42.1034 54.4326C41.4351 54.8442 40.6293 55.0501 39.6831 55.0501C38.7796 55.0501 37.9945 54.8456 37.3276 54.4356C36.6611 54.0267 36.3284 53.4761 36.3284 52.7859V9.97497C36.3284 9.37119 36.5428 8.85413 36.9728 8.422C37.4031 7.99239 37.9414 7.77613 38.5859 7.77613H50.8471C60.74 7.77613 65.6871 12.1727 65.6871 20.9688C65.6871 24.618 64.8695 27.4838 63.2355 29.5656C61.6003 31.6486 59.3855 33.0325 56.5897 33.7201L65.6234 50.7679C65.7947 51.0713 65.8806 51.3953 65.8806 51.7404ZM58.8472 21.5508C58.8472 16.4198 56.18 13.8549 50.8471 13.8549H43.1026V29.2467H50.8471C56.18 29.2467 58.8472 26.6818 58.8472 21.5508ZM14.4539 55.438C10.0657 55.438 6.55986 54.274 3.93574 51.9459C1.31129 49.6169 0 45.9742 0 41.0163V22.1977C0 17.2398 1.31129 13.5958 3.93574 11.2681C6.55986 8.94016 10.0019 7.77613 14.2601 7.77613C18.6041 7.77613 22.142 8.86447 24.8744 11.0415C27.6064 13.2197 28.9726 16.1179 28.9726 19.7399C28.9726 20.9909 28.7036 21.8527 28.1654 22.3266C27.6274 22.8019 26.7564 23.0378 25.5527 23.0378C23.3143 23.0378 22.1747 22.2838 22.1331 20.7747C21.6585 16.1618 19.0993 13.8549 14.4539 13.8549C9.37815 13.8549 6.83952 16.6361 6.83952 22.1977V41.0163C6.83952 46.578 9.37815 49.3593 14.4539 49.3593C16.9052 49.3593 18.7975 48.6665 20.1324 47.28C21.4648 45.8934 22.1331 43.7931 22.1331 40.9772V35.6484H15.6156C14.927 35.6484 14.3887 35.3827 14.0026 34.8501C13.6153 34.3176 13.4218 33.6681 13.4218 32.9001C13.4218 32.2191 13.6153 31.6006 14.0026 31.0474C14.3887 30.4938 14.927 30.2166 15.6156 30.2166H26.7137C27.4012 30.2166 27.9498 30.4432 28.3591 30.8949C28.7674 31.3478 28.9726 31.8973 28.9726 32.5443V41.0163C28.9726 45.9742 27.6495 49.6169 25.0044 51.9459C22.3579 54.274 18.8417 55.438 14.4539 55.438Z" fill="#BAAF9F"/>
<path fill-rule="evenodd" clip-rule="evenodd" d="M227.35 10.0353C227.746 8.63953 229.19 7.83355 230.575 8.23323L231.828 8.59526C233.211 8.99642 234.012 10.4505 233.615 11.8463L221.879 53.1065C221.68 53.8043 221.265 54.3288 220.637 54.6805C220.007 55.0333 219.346 55.1086 218.654 54.9082L217.401 54.5462C216.71 54.3472 216.189 53.9291 215.84 53.294C215.49 52.6599 215.415 51.993 215.614 51.2955L227.35 10.0353Z" fill="#BAAF9F"/>
<path fill-rule="evenodd" clip-rule="evenodd" d="M230.295 30.588C230.691 29.1923 232.135 28.3863 233.52 28.786L234.773 29.148C236.156 29.5477 236.956 31.0032 236.56 32.399L230.689 53.0739C230.49 53.7718 230.076 54.2966 229.446 54.6479C228.817 54.9996 228.157 55.0749 227.464 54.8757L226.211 54.514C225.519 54.3132 225 53.8954 224.65 53.2614C224.301 52.6259 224.226 51.9608 224.424 51.263L230.295 30.588Z" fill="#BAAF9F"/>
<path fill-rule="evenodd" clip-rule="evenodd" d="M234.708 45.7322C235.105 44.3368 236.549 43.5308 237.933 43.9305L239.186 44.2925C240.569 44.6923 241.37 46.1478 240.974 47.5432L239.448 53.1078C239.249 53.8046 238.834 54.329 238.205 54.6819C237.576 55.0336 236.914 55.1089 236.222 54.9085L234.97 54.5464C234.278 54.3475 233.757 53.9294 233.409 53.2953C233.059 52.6602 232.983 51.9933 233.182 51.2969L234.708 45.7322Z" fill="#BAAF9F"/>
</g>
<defs>
<clipPath id="clip0_538_13246">
<rect width="285" height="74" fill="white"/>
</clipPath>
</defs>
</svg>
