<svg width="285" height="85" viewBox="0 0 285 85" fill="none" xmlns="http://www.w3.org/2000/svg">
<path d="M80.0955 27.3356C80.0955 23.8273 80.7289 16.962 80.005 13.7863L80.0805 13H64.9544L64.8639 13.4688C63.1297 16.9771 62.1042 21.2566 60.8675 25.0068C58.2887 32.6737 55.7702 40.3707 53.3271 48.0829C49.1347 36.6961 45.9526 24.8859 41.4586 13.6049L41.5491 13H25.9706L26.1214 13.6049C25.5785 19.2302 25.9404 25.158 25.9404 30.8137V63.5376L36.3613 63.4922C36.2406 55.6893 36.1954 47.9015 36.2105 40.0985C36.2105 36.0307 35.9088 31.6907 36.316 27.6532C40.1918 39.6146 45.4248 51.4702 48.6973 63.5678L57.4744 63.4771C61.5311 51.2283 66.2061 39.1156 69.9009 26.761C69.4636 38.9946 69.6898 51.2888 69.6747 63.5376L80.1709 63.4771C80.0654 51.4249 80.0352 39.3878 80.0955 27.3356Z" fill="#BAAF9F"/>
<path d="M25.9707 13H41.5492L41.4587 13.6049C37.2662 14.4668 30.2838 14.5878 26.1215 13.6049L25.9707 13Z" fill="#BAAF9F"/>
<path d="M64.9532 13H80.0792L80.0038 13.7863C75.9019 14.6483 68.9647 14.3005 64.8477 13.4688L64.9532 13Z" fill="#BAAF9F"/>
<path d="M157.203 13H166.674V13.7712C163.552 14.1946 160.325 13.378 157.233 13.7712L157.203 13Z" fill="#BAAF9F"/>
<path d="M167.157 14.86C167.082 14.4971 166.901 14.0585 166.675 13.7712V13H157.204L157.234 13.7561C157.445 16.9015 157.973 29.0746 156.872 31.4185C156.405 29.9063 154.414 28.5907 153.057 27.88C149.513 25.9898 145.094 25.7932 141.294 26.9576C137.629 28.0766 134.508 31.0102 132.743 34.3522C129.878 39.7659 129.667 47.3722 131.476 53.1488C132.758 57.2317 135.412 60.7551 139.258 62.7663C142.742 64.581 147.507 65.08 151.277 63.9156C153.69 63.1746 155.983 61.5415 157.159 59.2883C157.28 59.0766 157.37 58.8498 157.43 58.6078C158.079 59.7268 157.973 63.1595 158.878 63.5678C160.356 64.2332 164.76 63.4922 166.66 63.5073C167.022 62.9629 167.173 62.479 167.203 61.8288C167.791 51.2585 167.248 40.3556 167.233 29.7551C167.233 25.778 167.836 18.3985 167.157 14.86ZM155.319 53.5722C153.962 55.2961 152.424 56.022 150.267 56.279C148.925 56.6873 147.04 56.4 145.743 55.9161C143.752 55.16 142.365 53.5268 141.535 51.6215C139.952 48.0376 139.816 43.3649 141.264 39.7356C142.5 36.6507 144.084 35.4259 147.025 34.1707C147.13 34.1556 147.236 34.1405 147.326 34.1254C149.634 33.8078 151.926 34.2766 153.796 35.698C156.179 37.5127 157.355 40.4917 157.732 43.38C158.184 46.8429 157.506 50.7898 155.319 53.5873V53.5722Z" fill="#BAAF9F"/>
<path d="M252.543 32.2055C255.68 30.9806 257.686 27.9713 261.124 26.8372C261.562 26.686 261.999 26.565 262.452 26.4591C262.904 26.3533 263.356 26.2777 263.809 26.2172C264.261 26.1567 264.729 26.1265 265.181 26.1113C265.649 26.1113 266.101 26.1113 266.569 26.1416C267.036 26.1718 267.489 26.2323 267.941 26.3079C268.393 26.3835 268.846 26.4894 269.283 26.6104C269.72 26.7313 270.158 26.8674 270.595 27.0338C271.033 27.2001 271.44 27.3816 271.862 27.5933C274.954 29.166 276.643 31.5552 277.683 34.746H278.045C278.196 39.1918 279.01 58.064 277.668 60.9977C278.015 62.2074 278 62.3889 277.517 63.5382C274.154 63.4021 270.716 63.5382 267.353 63.5533C267.428 63.4021 267.519 63.2508 267.594 63.0996C268.514 61.285 268.454 40.3411 267.7 38.103C267.262 36.7723 266.388 35.744 265.121 35.124C263.341 34.2469 260.913 34.1713 259.043 34.8216C249.573 38.0728 256.163 57.8977 253.433 63.4625L243.465 63.5533C243.691 63.2206 243.887 62.8425 243.993 62.4645C244.641 60.0147 244.415 32.9616 244.098 29.0904C244.038 28.425 243.842 27.8352 243.51 27.2606L253.041 27.2908C253.101 27.3816 253.147 27.4874 253.177 27.5933C253.795 29.2416 253.252 30.6782 252.543 32.2055Z" fill="#BAAF9F"/>
<path d="M277.683 34.7441H278.045C278.196 39.19 279.01 58.0622 277.668 60.9958C276.582 58.5915 277.547 38.4339 277.683 34.7441Z" fill="#BAAF9F"/>
<path d="M6.68164 27.3349L16.8913 27.3047V63.4613C13.5132 63.5066 10.0748 63.6579 6.68164 63.3857V27.3349Z" fill="#BAAF9F"/>
<path d="M6.68164 28.9551C7.04358 29.318 7.29995 29.7868 7.37536 30.3009C7.79762 33.2195 7.48092 36.5765 7.496 39.5556C7.496 45.7404 7.58649 51.9404 7.496 58.1253C7.46584 59.4409 7.60157 60.9985 6.69672 62.057V28.9551H6.68164Z" fill="#BAAF9F"/>
<path d="M125.745 44.3466C125.73 44.029 125.699 43.7266 125.669 43.409C125.639 43.0914 125.594 42.789 125.549 42.4714C125.503 42.1539 125.443 41.8514 125.383 41.549C125.322 41.2466 125.247 40.929 125.172 40.6266C125.096 40.3241 125.006 40.0217 124.915 39.7192C124.825 39.4168 124.719 39.1144 124.614 38.8271C124.508 38.5246 124.387 38.2373 124.267 37.95C124.146 37.6627 124.01 37.3753 123.875 37.088C123.739 36.8007 123.588 36.5285 123.437 36.2563C123.286 35.9841 123.136 35.7119 122.97 35.4397C122.804 35.1675 122.638 34.9105 122.457 34.6534C122.276 34.3963 122.095 34.1392 121.914 33.8822C121.718 33.6251 121.522 33.3832 121.326 33.1412C121.13 32.8992 120.919 32.6573 120.708 32.4305C120.496 32.2036 120.27 31.9768 120.044 31.75C119.818 31.5232 119.592 31.3114 119.35 31.0997C119.109 30.888 118.868 30.6914 118.626 30.4949C118.385 30.2983 118.129 30.1017 117.872 29.9202C117.616 29.7388 117.36 29.5573 117.088 29.3758C116.832 29.2095 116.56 29.0432 116.289 28.8768C116.018 28.7105 115.746 28.5592 115.46 28.4232C115.173 28.2719 114.902 28.1358 114.615 27.9997C114.328 27.8636 114.042 27.7427 113.74 27.6217C113.439 27.5007 113.152 27.3949 112.851 27.289C112.549 27.1832 112.247 27.0924 111.946 27.0017C111.644 26.911 111.342 26.8353 111.026 26.7597C110.724 26.6841 110.407 26.6236 110.106 26.5632C109.789 26.5027 109.488 26.4573 109.171 26.4119C108.854 26.3666 108.537 26.3363 108.236 26.3061C107.934 26.2758 107.602 26.2607 107.286 26.2456C106.969 26.2456 106.652 26.2305 106.336 26.2305C106.019 26.2305 105.702 26.2305 105.386 26.2607C105.069 26.2758 104.752 26.3061 104.435 26.3363C104.119 26.3666 103.802 26.4119 103.5 26.4573C103.184 26.5027 102.882 26.5632 102.565 26.6236C102.249 26.6841 101.947 26.7597 101.646 26.8353C101.344 26.911 101.027 27.0017 100.726 27.0924C100.424 27.1832 100.122 27.289 99.8207 27.3949C99.5191 27.5007 99.2326 27.6217 98.931 27.7427C98.6444 27.8636 98.3579 27.9997 98.0714 28.1358C97.7848 28.2719 97.4983 28.408 97.2269 28.5592C96.9554 28.7105 96.6689 28.8617 96.3974 29.028C96.126 29.1944 95.8545 29.3607 95.5981 29.5422C95.3418 29.7236 95.0854 29.9051 94.829 30.0866C94.5726 30.268 94.3313 30.4646 94.09 30.6763C93.8488 30.8729 93.6075 31.0846 93.3813 31.2963C93.155 31.508 92.9137 31.7197 92.7026 31.9466C92.4764 32.1734 92.2653 32.4002 92.0541 32.6271C91.843 32.8539 91.6319 33.0958 91.4358 33.3378C91.2398 33.5797 91.0437 33.8368 90.8628 34.0788C90.6818 34.3358 90.5008 34.5929 90.3199 34.85C90.1389 35.1071 89.973 35.3792 89.8222 35.6514C89.6563 35.9236 89.5055 36.1958 89.3547 36.468C89.2039 36.7402 89.0682 37.0275 88.9324 37.3149C88.7967 37.6022 88.676 37.8895 88.5554 38.1768C88.4348 38.4641 88.3292 38.7666 88.2236 39.0539C88.1181 39.3563 88.0276 39.6436 87.9371 39.9461C87.8466 40.2485 87.7712 40.551 87.6958 40.8534C87.6204 41.1558 87.5601 41.4734 87.4997 41.7758C87.4394 42.0783 87.3942 42.3958 87.3489 42.7134C87.3037 43.031 87.2735 43.3334 87.2434 43.651C87.2132 43.9685 87.1981 44.271 87.1831 44.5885C87.1831 44.9061 87.168 45.2236 87.168 45.5261C87.168 45.8436 87.168 46.1612 87.1981 46.4636C87.2132 46.7812 87.2434 47.0836 87.2735 47.4012C87.3037 47.7188 87.3489 48.0212 87.3942 48.3388C87.4394 48.6563 87.4997 48.9588 87.5601 49.2612C87.6204 49.5636 87.6958 49.8812 87.7712 50.1836C87.8466 50.4861 87.9371 50.7885 88.0276 51.091C88.1181 51.3934 88.2236 51.6958 88.3292 51.9832C88.4348 52.2856 88.5554 52.5729 88.676 52.8602C88.7967 53.1475 88.9324 53.4349 89.0682 53.7222C89.2039 54.0095 89.3547 54.2817 89.5055 54.569C89.6563 54.8412 89.8071 55.1134 89.973 55.3856C90.1389 55.6578 90.3048 55.9149 90.4857 56.1719C90.6667 56.429 90.8477 56.6861 91.0437 56.9432C91.2398 57.2002 91.4358 57.4422 91.6319 57.6841C91.8279 57.9261 92.0391 58.168 92.2502 58.3949C92.4613 58.6217 92.6875 58.8485 92.9137 59.0753C93.14 59.3022 93.3662 59.5139 93.6075 59.7256C93.8488 59.9373 94.09 60.1339 94.3313 60.3305C94.5726 60.5271 94.829 60.7236 95.0854 60.9051C95.3418 61.0866 95.5981 61.268 95.8696 61.4495C96.141 61.6158 96.3974 61.7822 96.6689 61.9485C96.9403 62.1149 97.2118 62.2661 97.4983 62.4022C97.7848 62.5534 98.0563 62.6895 98.3428 62.8256C98.6294 62.9617 98.9159 63.0827 99.2175 63.2036C99.5041 63.3246 99.8057 63.4305 100.107 63.5363C100.409 63.6422 100.711 63.7329 101.012 63.8236C101.314 63.9144 101.615 63.99 101.932 64.0656C102.249 64.1412 102.55 64.2017 102.852 64.2622C103.169 64.3227 103.47 64.368 103.787 64.4134C104.104 64.4588 104.42 64.489 104.722 64.5192C105.039 64.5495 105.355 64.5646 105.672 64.5797C105.989 64.5797 106.305 64.5949 106.622 64.5949C106.939 64.5949 107.256 64.5949 107.572 64.5646C107.889 64.5495 108.206 64.5192 108.522 64.489C108.839 64.4588 109.156 64.4134 109.457 64.368C109.774 64.3227 110.076 64.2622 110.392 64.2017C110.709 64.1412 111.011 64.0656 111.312 63.99C111.614 63.9144 111.916 63.8236 112.217 63.7329C112.519 63.6422 112.82 63.5363 113.122 63.4305C113.424 63.3246 113.71 63.2036 113.997 63.0827C114.283 62.9617 114.57 62.8256 114.856 62.6895C115.143 62.5534 115.429 62.4173 115.701 62.2661C115.972 62.1149 116.259 61.9636 116.515 61.7973C116.787 61.631 117.058 61.4646 117.314 61.2832C117.571 61.1017 117.827 60.9202 118.084 60.7388C118.34 60.5573 118.581 60.3607 118.823 60.149C119.064 59.9373 119.305 59.7407 119.531 59.529C119.758 59.3173 119.999 59.1056 120.21 58.8788C120.436 58.6519 120.647 58.4251 120.858 58.1983C121.07 57.9714 121.281 57.7295 121.477 57.4875C121.673 57.2456 121.869 56.9885 122.05 56.7466C122.231 56.4895 122.412 56.2324 122.593 55.9753C122.774 55.7183 122.94 55.4461 123.09 55.1739C123.256 54.9017 123.407 54.6295 123.558 54.3573C123.709 54.0851 123.844 53.7978 123.98 53.5105C124.116 53.2232 124.237 52.9358 124.357 52.6485C124.478 52.3612 124.583 52.0588 124.689 51.7714C124.795 51.469 124.885 51.1817 124.975 50.8792C125.066 50.5768 125.141 50.2744 125.217 49.9719C125.292 49.6695 125.353 49.3671 125.413 49.0495C125.473 48.7471 125.518 48.4295 125.564 48.1271C125.609 47.8095 125.639 47.5071 125.669 47.1895C125.699 46.8719 125.714 46.5695 125.73 46.2519C125.73 45.9344 125.745 45.6168 125.745 45.3144C125.745 44.9968 125.745 44.6792 125.714 44.3768L125.745 44.3466ZM113.047 53.7373C111.674 55.7485 109.94 56.5802 107.602 57.0339C106.215 57.4119 104.616 57.1397 103.304 56.6558C101.223 55.8846 99.866 54.2666 98.9762 52.2856C97.2721 48.5505 97.1062 43.5149 98.569 39.6739C99.7303 36.6344 101.48 35.0768 104.375 33.7763C106.637 33.4436 108.854 33.7007 110.784 35.0012C113.137 36.589 114.449 39.1446 114.977 41.8817C115.716 45.7529 115.354 50.4256 113.077 53.7222L113.047 53.7373Z" fill="#BAAF9F"/>
<path d="M184.349 48.429C185.992 47.3402 205.16 47.9299 209.036 47.8997C210.272 45.0568 209.292 40.3236 208.176 37.526C206.367 33.0348 203.184 29.4812 198.675 27.5758C195.312 26.1392 191.814 25.7612 188.194 26.2904C182.388 28.2865 178.196 30.5397 175.406 36.2407C172.963 41.2309 172.661 47.5065 174.486 52.7387C175.994 57.0938 179.04 60.6777 183.233 62.7041C183.806 62.9763 184.394 63.2334 184.982 63.4451C185.585 63.6568 186.188 63.8534 186.807 64.0046C187.425 64.1709 188.043 64.2919 188.662 64.3977C189.295 64.5036 189.913 64.5641 190.562 64.5943C191.195 64.6246 191.829 64.6397 192.462 64.6095C193.095 64.5792 193.729 64.5338 194.362 64.4431C194.996 64.3524 195.614 64.2314 196.232 64.0953C196.851 63.9441 197.454 63.7626 198.057 63.566C201.797 62.2655 206.563 58.8934 208.297 55.2792C208.629 54.5987 208.734 53.9938 208.674 53.2377L208.206 52.4212C206.985 52.3909 205.748 52.3153 204.527 52.3304H199.173V52.3909C198.962 53.7368 197.68 55.8538 196.549 56.6553C194.965 57.7743 192.99 57.8046 191.135 57.4719C190.803 57.4114 190.471 57.3358 190.14 57.2602C189.808 57.1695 189.491 57.0636 189.174 56.9426C188.858 56.8216 188.556 56.6856 188.255 56.5343C187.953 56.3831 187.666 56.2168 187.38 56.0353C187.093 55.8538 186.822 55.6573 186.55 55.4456C186.279 55.2338 186.038 55.0221 185.781 54.7802C185.54 54.5534 185.314 54.2963 185.088 54.0392C184.876 53.7821 184.665 53.5099 184.469 53.2377C183.851 52.3607 183.082 51.1207 183.293 50.0168C183.429 49.2909 183.715 48.8524 184.349 48.429ZM182.433 41.5031C184.937 38.8417 184.967 36.2709 188.42 33.7909C189.672 33.549 191.06 33.3675 192.341 33.4885C194.227 33.6548 196.262 34.5773 197.484 36.0441C198.781 37.6168 199.248 39.5675 199.052 41.5485L193.789 41.6695C190.004 41.7602 186.219 41.5938 182.433 41.5031Z" fill="#BAAF9F"/>
<path d="M235.639 26.3083C236.227 26.2629 237.087 26.1117 237.645 26.2629C238.067 26.3839 238.339 26.641 238.55 27.019C239.756 29.1361 239.123 33.2946 238.459 35.5629C236.122 35.2453 233.452 35.1697 231.19 35.9258C221.162 39.3132 227.767 57.4141 224.796 63.4629C222.262 63.4629 218.703 64.3097 216.396 63.2966C215.34 62.8278 215.205 61.7844 214.812 60.7712C215.039 60.4234 215.22 60.0453 215.325 59.6371C215.974 57.1873 215.732 32.6292 215.416 29.0453C215.355 28.4102 215.144 27.8205 214.828 27.2761H224.389C224.57 27.5785 224.736 27.8961 224.826 28.2288C225.369 30.1644 224.781 31.9034 223.816 33.5971C228.883 30.981 227.073 28.2439 235.624 26.2932L235.639 26.3083Z" fill="#BAAF9F"/>
<path d="M11.7941 24.5074C14.6759 24.5074 17.0121 22.1648 17.0121 19.2752C17.0121 16.3855 14.6759 14.043 11.7941 14.043C8.91233 14.043 6.57617 16.3855 6.57617 19.2752C6.57617 22.1648 8.91233 24.5074 11.7941 24.5074Z" fill="#BAAF9F"/>
</svg>
