<svg width="281" height="39" viewBox="0 0 281 39" fill="none" xmlns="http://www.w3.org/2000/svg">
<g clip-path="url(#clip0_538_12994)">
<path d="M25.8646 0.544467C27.9415 0.544467 29.5894 0.821991 30.8031 1.3718C32.0168 1.92161 32.9219 2.60757 33.5183 3.44014C34.1147 4.27272 34.4495 5.19954 34.5123 6.22062C34.575 7.2417 34.4861 8.23136 34.2402 9.18437C33.9263 10.4097 33.4346 11.5302 32.7754 12.5513C32.111 13.5724 31.3315 14.5097 30.4265 15.3684C29.5214 16.2272 28.5169 17.0126 27.4236 17.7353C26.3249 18.4579 25.2002 19.1124 24.0492 19.7093C24.7555 22.2751 25.6605 24.7362 26.7644 27.0925C27.8682 29.4541 29.1133 31.7371 30.5154 33.9469L21.559 38.9947C19.5031 35.9105 17.8394 32.6116 16.563 29.0928C15.2865 25.574 14.2663 21.9348 13.4973 18.1751C14.2088 17.7405 15.0981 17.2273 16.1601 16.6252C17.2274 16.0282 18.2841 15.3842 19.3304 14.693C20.3767 14.0018 21.3079 13.2635 22.1188 12.4937C22.9297 11.7187 23.4372 10.9385 23.6412 10.1479C23.7877 9.57709 23.7406 9.14772 23.5052 8.85972C23.2645 8.57172 22.9402 8.36751 22.5321 8.24707C22.124 8.1214 21.6584 8.0638 21.1458 8.0638C20.6331 8.0638 20.1779 8.0638 19.7803 8.0638L4.95424 8.03238L9.02958 0.507812L25.8646 0.53923V0.544467ZM9.14468 33.905L0 33.8893L6.39813 9.04823L15.5428 9.06917L9.13944 33.9102L9.14468 33.905Z" fill="#BAAF9F"/>
<path d="M58.9273 34.0055L49.7826 33.9845L52.5082 23.402L42.5108 23.381C42.0557 25.2609 41.9249 27.0936 42.1185 28.8791C42.312 30.6647 42.7044 32.3613 43.2851 33.9741L34.6374 38.6553C33.5597 36.1995 32.9058 33.5656 32.6808 30.7433C32.4506 27.9209 32.7227 25.0305 33.4865 22.0562C33.8579 20.611 34.3549 19.1658 34.9722 17.7049C35.5895 16.2492 36.3324 14.8249 37.2061 13.4373C38.0745 12.0497 39.0737 10.7301 40.1933 9.47863C41.3128 8.22715 42.5474 7.08564 43.8972 6.05408C45.4248 4.88639 46.9367 3.94385 48.4329 3.22124C49.9291 2.50387 51.4462 1.95406 52.9843 1.57704C54.5224 1.20003 56.0709 0.943449 57.6299 0.807306C59.1889 0.676398 60.7949 0.608326 62.4481 0.613562L66.9367 0.624035L67.1355 8.14337L59.9579 8.12766C57.5096 8.12766 55.4588 8.38947 53.8056 8.93405C52.1525 9.47339 50.7818 10.1436 49.678 10.9291C48.5794 11.7198 47.6952 12.5576 47.0361 13.4582C46.3769 14.3589 45.8119 15.16 45.3463 15.8669L54.4491 15.8826L56.186 9.1435L65.3307 9.16445L58.9273 34.0055Z" fill="#BAAF9F"/>
<path d="M64.9545 34.0208L71.3526 9.17979L80.4973 9.1955L76.0348 26.5172C77.6199 26.4387 79.1632 26.0512 80.649 25.36C82.14 24.6688 83.5054 23.7681 84.7452 22.6476C85.9851 21.5322 87.0523 20.2755 87.9417 18.8722C88.8311 17.4741 89.4693 16.0236 89.8512 14.5208C90.2593 12.9395 90.3011 11.7194 89.982 10.8606C89.6629 10.0019 89.192 9.37354 88.5642 8.97558C87.9417 8.57762 87.2564 8.34722 86.5187 8.27915C85.7811 8.21108 85.1847 8.17442 84.7296 8.17442L69.9035 8.143L73.9788 0.628906L88.8049 0.660324C91.3997 0.66556 93.4976 1.03734 95.1036 1.77566C96.7097 2.51398 97.8973 3.49317 98.6663 4.70799C99.4353 5.92281 99.8643 7.31567 99.9428 8.88132C100.021 10.447 99.8486 12.0755 99.4092 13.7668C98.593 16.9243 97.2747 19.7571 95.4437 22.2601C93.6179 24.763 91.4782 26.8837 89.0403 28.6222C86.5972 30.3606 83.9344 31.6959 81.057 32.6332C78.1797 33.5705 75.2867 34.0313 72.3832 34.0261L64.9492 34.0103L64.9545 34.0208Z" fill="#BAAF9F"/>
<path d="M112.069 34.8529C110.275 34.8529 108.721 34.5178 107.408 33.8632C106.095 33.2087 104.991 32.3238 104.091 31.2189C103.191 30.114 102.496 28.8312 102.004 27.3702C101.507 25.9145 101.177 24.3855 101.005 22.7885C100.832 21.1914 100.816 19.5734 100.952 17.9239C101.094 16.2745 101.35 14.7141 101.732 13.2427C102.197 11.4466 102.893 9.73959 103.819 8.11633C104.75 6.49831 105.975 5.08975 107.492 3.89587C109.009 2.70199 110.882 1.74898 113.1 1.04732C115.323 0.340418 117.97 -0.00517769 121.047 5.8611e-05C124.123 0.00529492 126.587 0.3666 128.444 1.07874C130.296 1.79087 131.677 2.74912 132.577 3.94823C133.477 5.14735 133.979 6.56115 134.073 8.1844C134.167 9.80766 133.984 11.5147 133.518 13.3107C133.137 14.7821 132.592 16.3426 131.886 17.9868C131.175 19.6362 130.322 21.2542 129.328 22.8461C128.334 24.4379 127.214 25.9617 125.969 27.4174C124.724 28.873 123.369 30.1507 121.905 31.2503C120.44 32.3499 118.881 33.2244 117.228 33.879C115.58 34.5335 113.858 34.8529 112.059 34.8529H112.069ZM114.099 26.967C114.952 26.967 115.878 26.5586 116.872 25.747C117.866 24.9301 118.813 23.8828 119.713 22.6052C120.612 21.3275 121.434 19.9033 122.182 18.3376C122.93 16.7719 123.495 15.2272 123.887 13.7035C124.175 12.5881 124.295 11.6508 124.243 10.902C124.196 10.1533 123.971 9.54584 123.579 9.07981C123.186 8.61378 122.606 8.28913 121.842 8.09539C121.078 7.90164 120.141 7.80739 119.032 7.80215C117.923 7.80215 116.935 7.89117 116.077 8.07968C115.213 8.26818 114.471 8.59284 113.838 9.05363C113.205 9.51443 112.671 10.1218 112.237 10.8706C111.802 11.6194 111.441 12.5515 111.154 13.6668C110.761 15.1906 110.531 16.7353 110.474 18.3062C110.411 19.8718 110.5 21.2961 110.74 22.579C110.981 23.8619 111.384 24.9092 111.959 25.726C112.535 26.5481 113.246 26.9566 114.099 26.9566V26.967Z" fill="#BAAF9F"/>
<path d="M158.489 8.3359L150.798 8.32019C150.568 8.32019 150.265 8.31496 149.883 8.29925C149.501 8.28354 149.124 8.30972 148.753 8.37779C148.381 8.44586 148.036 8.55583 147.727 8.70244C147.419 8.84906 147.22 9.08993 147.136 9.41458C147.016 9.88061 147.079 10.2995 147.325 10.6818C147.57 11.064 147.806 11.4201 148.031 11.7447L152.661 18.4996C153.053 19.0703 153.435 19.6516 153.796 20.238C154.157 20.8245 154.46 21.4476 154.706 22.1021C154.952 22.7567 155.104 23.4426 155.156 24.1653C155.214 24.8879 155.135 25.6576 154.926 26.4745C154.738 27.2075 154.398 28.0244 153.911 28.9251C153.425 29.8257 152.729 30.6583 151.834 31.4332C150.934 32.2082 149.804 32.8628 148.444 33.3864C147.084 33.9152 145.446 34.1771 143.537 34.1718L132.896 34.1509L132.697 26.6315L140.989 26.6473C141.214 26.6473 141.523 26.6577 141.899 26.6682C142.281 26.6839 142.658 26.6577 143.029 26.5897C143.401 26.5216 143.746 26.4116 144.055 26.265C144.364 26.1184 144.562 25.8775 144.646 25.5529C144.766 25.0921 144.704 24.6679 144.458 24.2857C144.212 23.9034 143.976 23.5474 143.746 23.2227L139.279 16.5098C138.886 15.939 138.509 15.3525 138.149 14.7504C137.788 14.1482 137.495 13.5251 137.264 12.8705C137.034 12.216 136.888 11.53 136.835 10.8074C136.778 10.0848 136.856 9.31509 137.066 8.49823C137.254 7.76514 137.594 6.94828 138.08 6.04764C138.567 5.14699 139.263 4.31442 140.157 3.53945C141.057 2.76447 142.187 2.11517 143.547 1.5863C144.908 1.05744 146.545 0.795622 148.455 0.800858L158.285 0.821804L158.483 8.34114L158.489 8.3359Z" fill="#BAAF9F"/>
<path d="M187.508 8.39334L177.767 8.37239L171.102 34.2345L161.957 34.2136L168.622 8.35145L158.881 8.3305L162.956 0.816406L187.314 0.868769L187.513 8.3881L187.508 8.39334Z" fill="#BAAF9F"/>
<path d="M196.679 35.0254C194.884 35.0254 193.33 34.6903 192.017 34.0357C190.704 33.376 189.6 32.4963 188.701 31.3914C187.801 30.2865 187.105 29.0037 186.613 27.5427C186.116 26.087 185.787 24.558 185.614 22.9662C185.441 21.3691 185.426 19.7511 185.562 18.1017C185.698 16.4522 185.959 14.8918 186.341 13.4204C186.807 11.6244 187.503 9.91732 188.429 8.29407C189.36 6.67605 190.584 5.26748 192.101 4.0736C193.618 2.87973 195.491 1.92672 197.709 1.22505C199.927 0.518153 202.575 0.172557 205.656 0.177793C208.732 0.183029 211.196 0.544334 213.053 1.25647C214.905 1.96861 216.286 2.92685 217.186 4.12597C218.091 5.32508 218.588 6.73888 218.682 8.36214C218.777 9.98539 218.593 11.6924 218.133 13.4885C217.751 14.9599 217.207 16.5151 216.501 18.1645C215.789 19.8139 214.937 21.432 213.943 23.0238C212.949 24.6156 211.829 26.1394 210.584 27.5951C209.339 29.0508 207.984 30.3284 206.519 31.4281C205.054 32.5277 203.495 33.4021 201.847 34.0567C200.199 34.706 198.473 35.0306 196.679 35.0306V35.0254ZM198.708 27.1395C199.566 27.1395 200.487 26.7363 201.481 25.9195C202.475 25.1026 203.422 24.0553 204.322 22.7777C205.222 21.5 206.043 20.0758 206.791 18.5101C207.539 16.9444 208.104 15.3997 208.497 13.876C208.784 12.7606 208.905 11.8286 208.858 11.0745C208.805 10.3258 208.586 9.71834 208.193 9.25231C207.801 8.78628 207.22 8.46163 206.462 8.26788C205.698 8.07414 204.761 7.97989 203.652 7.97465C202.543 7.97465 201.554 8.06367 200.696 8.25218C199.833 8.44068 199.09 8.76533 198.457 9.22613C197.824 9.68692 197.291 10.2943 196.857 11.0431C196.422 11.7919 196.061 12.724 195.774 13.8393C195.381 15.3631 195.151 16.9078 195.094 18.4787C195.031 20.0443 195.12 21.4686 195.36 22.7515C195.601 24.0292 196.004 25.0817 196.579 25.8985C197.149 26.7206 197.861 27.1291 198.719 27.1291L198.708 27.1395Z" fill="#BAAF9F"/>
<path d="M245.065 34.3869L235.92 34.366L238.458 24.5165L231.693 13.2637H231.61L226.174 34.345L217.029 34.3241L225.635 0.953125L234.351 0.968834L241.596 12.3473L244.521 0.989779L253.666 1.01072L245.065 34.3922V34.3869Z" fill="#BAAF9F"/>
<path d="M281 8.58271L266.943 8.55129L265.667 13.4944L278.442 13.5205L274.367 21.0346L263.726 21.0137L262.209 26.8941L277.207 26.9255L273.132 34.4396L251.123 34.3925L259.734 1.02148L280.801 1.06337L281 8.58271Z" fill="#BAAF9F"/>
</g>
<defs>
<clipPath id="clip0_538_12994">
<rect width="281" height="39" fill="white"/>
</clipPath>
</defs>
</svg>
