<svg width="285" height="85" viewBox="0 0 285 85" fill="none" xmlns="http://www.w3.org/2000/svg">
<path d="M60.3157 52.3049L52.949 71.1537C52.8185 71.4871 52.4777 71.7089 52.0958 71.7089H49.8819C49.4812 71.7089 49.1273 71.4644 49.0123 71.1077L45.268 59.4801L41.5434 71.1067C41.4293 71.464 41.0751 71.7089 40.6735 71.7089H38.4415C38.0587 71.7089 37.717 71.4868 37.5875 71.1524L30.2608 52.3032C30.1606 52.0451 30.2019 51.7575 30.3719 51.5328C30.5419 51.3079 30.8191 51.1739 31.115 51.1739H34.7921C35.184 51.1739 35.5319 51.4073 35.6548 51.7532L39.5619 62.7567L42.7016 51.8001C42.8075 51.4311 43.1677 51.1739 43.5787 51.1739H47.0241C47.4352 51.1739 47.795 51.4305 47.9008 51.7994L51.0568 62.7567L54.9239 51.7554C55.0457 51.4089 55.3943 51.1739 55.7872 51.1739H59.4618C59.7578 51.1739 60.0358 51.3079 60.2054 51.5335C60.3755 51.7585 60.4167 52.0464 60.3157 52.3049ZM155.659 50.9775C155.533 50.8952 155.372 50.8761 155.228 50.9244L147.967 53.3717V52.2037C147.967 51.6353 147.471 51.1739 146.859 51.1739H143.835C143.223 51.1739 142.726 51.6353 142.726 52.2037V70.6796C142.726 71.248 143.223 71.7089 143.835 71.7089H146.859C147.471 71.7089 147.967 71.248 147.967 70.6796V57.9024L155.03 55.9283C155.522 55.7903 155.859 55.3691 155.859 54.8916V51.3352C155.859 51.1923 155.784 51.059 155.659 50.9775ZM140.472 61.2982C140.472 61.7566 140.417 62.2153 140.348 62.6729C140.272 63.1797 139.818 63.5551 139.283 63.5551H124.116C124.866 65.8486 127.071 67.3546 129.58 67.3546C131.164 67.3546 132.655 66.9318 133.887 65.9374C134.286 65.6149 134.867 65.6124 135.269 65.9328L137.27 67.5311C137.507 67.7197 137.647 67.9977 137.656 68.2916C137.665 68.5865 137.541 68.8706 137.317 69.0727C135.351 70.8449 132.576 72.0118 129.767 72.0118C123.74 72.0118 118.837 67.3546 118.837 61.585C118.837 55.7096 123.628 50.8714 129.844 50.8714C135.757 50.8714 140.472 55.7463 140.472 61.2982ZM135.455 59.3285C134.634 56.9627 132.352 55.5312 129.803 55.5312C127.334 55.5312 124.789 57.0368 124.041 59.3285H135.455ZM93.0737 59.1357C92.0281 58.8494 90.1261 58.5234 90.1663 57.1906C90.1261 56.1083 91.0573 55.4979 92.1831 55.4979C92.8796 55.4979 93.5179 55.7603 93.8784 56.2579C94.1498 56.6323 94.652 56.7988 95.1177 56.6682L97.8932 55.8924C98.2057 55.8053 98.4606 55.5953 98.5905 55.3175C98.7209 55.0397 98.7124 54.7233 98.5687 54.4517C97.4308 52.2969 94.9005 50.8172 92.2579 50.8172C88.4579 50.8172 85.0058 53.2638 85.0058 56.9768C85.0058 58.6677 85.7032 60.0705 87.1007 61.1521C88.4189 62.1609 89.3892 62.4138 90.9793 62.8815C92.3361 63.314 94.6241 63.8171 94.6241 65.4759C94.6241 66.735 93.4626 67.385 92.219 67.385C91.0559 67.385 90.2383 66.8086 89.7991 65.9691C89.5616 65.515 89.0066 65.2888 88.4855 65.4335L85.4707 66.2677C85.1759 66.3489 84.9305 66.5406 84.7941 66.7969C84.657 67.0522 84.6415 67.3493 84.7496 67.6173C85.8499 70.3411 88.5938 72.0663 92.0281 72.0663C94.0049 72.0663 96.1783 71.2028 97.6132 69.9769C99.0474 68.68 99.7854 67.0597 99.7854 65.1865C99.7854 61.1883 96.5255 60.1097 93.0737 59.1357ZM110.247 59.136C109.201 58.8493 107.3 58.5234 107.34 57.1908C107.3 56.1083 108.231 55.4977 109.357 55.4977C110.053 55.4977 110.691 55.7605 111.052 56.2578C111.323 56.633 111.826 56.7989 112.292 56.6682L115.067 55.8923C115.379 55.8052 115.635 55.5946 115.765 55.3175C115.895 55.0396 115.887 54.7233 115.743 54.4514C114.604 52.2969 112.074 50.8164 109.431 50.8164C105.631 50.8164 102.18 53.2645 102.18 56.9767C102.18 58.6676 102.877 60.071 104.274 61.1521C105.591 62.1613 106.564 62.4132 108.152 62.8821C109.51 63.3139 111.797 63.817 111.797 65.4758C111.797 66.7349 110.636 67.385 109.393 67.385C108.23 67.385 107.412 66.8093 106.972 65.969C106.734 65.5149 106.18 65.2894 105.659 65.4335L102.644 66.2687C102.349 66.3498 102.104 66.5417 101.968 66.7976C101.831 67.0534 101.815 67.3503 101.923 67.6183C103.024 70.3411 105.767 72.0664 109.201 72.0664C111.178 72.0664 113.352 71.2034 114.787 69.9767C116.22 68.6798 116.96 67.0596 116.96 65.1869C116.96 61.1883 113.7 60.1104 110.247 59.136ZM81.8339 52.0442V70.8391C81.8339 71.3192 81.442 71.7088 80.9589 71.7088H77.7889C77.3054 71.7088 76.9135 71.3192 76.9135 70.8391V70.0911C75.1897 71.2961 73.0906 72.0118 70.8271 72.0118C64.9672 72.0118 60.1982 67.2713 60.1982 61.4423C60.1982 55.6139 64.9672 50.8712 70.8271 50.8712C73.0906 50.8712 75.1897 51.5849 76.9135 52.7925V52.0442C76.9135 51.5632 77.3054 51.1739 77.7889 51.1739H80.9589C81.442 51.1739 81.8339 51.5632 81.8339 52.0442ZM77.2963 61.4403C77.2963 58.1964 74.5733 55.3059 71.2104 55.3059C68.2451 55.3059 65.1214 57.5286 65.1214 61.4403C65.1214 65.0575 68.1196 67.5476 71.2104 67.5476C74.5733 67.5476 77.2963 64.6858 77.2963 61.4403Z" fill="#BAAF9F"/>
<path d="M213.922 61.0993C213.922 64.3648 211.187 67.2445 207.812 67.2445C204.709 67.2445 201.7 64.7394 201.7 61.0993C201.7 57.1634 204.835 54.927 207.812 54.927C211.187 54.927 213.922 57.8352 213.922 61.0993ZM253.794 0V42.4028V77.5586C253.794 79.1668 252.533 80.5215 251.077 81.3056C246.096 83.9844 239.777 85 236.125 85C218.057 85 210.879 79.2737 191.007 79.2737C174.377 79.2737 164.036 83.6169 161.423 83.9905C160.491 84.1231 158.631 84.1552 158.631 81.8408V42.4028V0H253.794ZM242.699 42.4028H237.417V62.3189C237.417 69.9253 243.747 71.9353 247.094 71.9353H247.35C247.857 71.9353 248.268 71.5543 248.269 71.0832L248.278 67.8775C248.28 67.4077 247.873 67.0257 247.369 67.0204L247.117 67.0178C246.379 67.0095 242.699 66.7471 242.699 62.3188V55.6204H247.323C247.83 55.6204 248.241 55.2381 248.241 54.7663V51.6236C248.241 51.152 247.83 50.7692 247.323 50.7692H242.699V42.4028ZM233.852 42.4028H228.991C226.02 43.4985 223.002 46.079 223.002 51.331V70.5775C223.002 71.0491 223.413 71.4315 223.919 71.4315H227.366C227.874 71.4315 228.285 71.0491 228.285 70.5775V55.5608H232.877C233.384 55.5608 233.795 55.1779 233.795 54.7064V51.6238C233.795 51.152 233.384 50.7694 232.877 50.7694H228.314C228.617 46.8916 231.997 46.6423 232.7 46.6347L232.956 46.6317C233.46 46.6263 233.866 46.2439 233.863 45.7747L233.852 42.4028ZM167.112 42.4028H161.85V70.5775C161.85 71.0491 162.261 71.4315 162.768 71.4315H166.194C166.701 71.4315 167.112 71.0491 167.112 70.5775V64.3141L173.389 70.9197C173.701 71.2482 174.15 71.4346 174.621 71.4315L179.701 71.3973C179.918 71.3955 180.114 71.2754 180.2 71.0903C180.287 70.9051 180.249 70.6893 180.102 70.5408L169.639 59.91L178.836 51.6487C178.996 51.5036 179.047 51.2825 178.963 51.0892C178.881 50.8954 178.678 50.7694 178.454 50.7694H173.483C173.021 50.7694 172.577 50.9419 172.251 51.2481L167.112 56.0906V42.4028ZM196.222 50.9314C196.222 50.7877 196.147 50.6539 196.021 50.5716C195.895 50.4891 195.733 50.4696 195.588 50.5184L188.299 52.9807V51.8054C188.299 51.2337 187.801 50.7694 187.187 50.7694H184.151C183.537 50.7694 183.039 51.2337 183.039 51.8054V70.3955C183.039 70.9673 183.537 71.4315 184.151 71.4315H187.187C187.801 71.4315 188.299 70.9673 188.299 70.3955V57.5396L195.39 55.5527C195.883 55.4141 196.222 54.9904 196.222 54.5096V50.9314ZM218.476 51.6451C218.476 51.1611 218.082 50.7694 217.598 50.7694H214.415C213.93 50.7694 213.537 51.1611 213.537 51.6451V52.3981C211.807 51.1828 209.7 50.4646 207.427 50.4646C201.544 50.4646 196.757 55.237 196.757 61.1015C196.757 66.9663 201.544 71.7362 207.427 71.7362C209.7 71.7362 211.807 71.0159 213.537 69.8038V70.5562C213.537 71.0392 213.93 71.4315 214.415 71.4315H217.598C218.082 71.4315 218.476 71.0392 218.476 70.5562V51.6451Z" fill="#BAAF9F"/>
</svg>
