<svg width="128" height="99" viewBox="0 0 128 99" fill="none" xmlns="http://www.w3.org/2000/svg">
<path d="M60.2693 0.621094H57.9141V73.8159H60.2693V0.621094Z" fill="#EDE4D7"/>
<path d="M96.1108 68.7145V56.6059H84.6967V58.931H93.7253V67.6576C92.7288 68.7749 89.2563 71.3415 83.0963 71.3415C75.1246 71.3415 68.9043 64.9098 68.9043 56.9381C68.9043 49.0268 75.1246 42.4441 83.0963 42.4441C87.5049 42.4441 91.219 44.5276 93.4837 47.8189L95.4163 46.3997C92.6986 42.5649 88.3806 40.0888 83.0963 40.0888C73.7658 40.0888 66.6094 47.6076 66.6094 56.9683C66.6094 66.2988 73.7356 73.8478 83.0963 73.8478C91.0982 73.8176 94.6916 70.2243 96.1108 68.7145ZM105.471 73.7874V46.8225L127.998 73.8176V40.0586H125.612V67.0839L103.086 40.0888V73.7874H105.471Z" fill="#EDE4D7"/>
<path fill-rule="evenodd" clip-rule="evenodd" d="M42.7857 81.7596C43.8728 82.3031 44.839 83.0882 45.5033 84.0242L45.5939 84.145L44.3861 85.0207L44.2955 84.8999C43.752 84.1148 42.9669 83.5109 42.0912 83.058C41.1551 82.605 40.1285 82.3635 39.132 82.3635C37.2297 82.3635 35.5085 83.1486 34.3007 84.4168C33.0626 85.685 32.2775 87.4666 32.2775 89.3991C32.2775 91.3316 33.0324 93.083 34.2705 94.3512C35.5085 95.5893 37.1995 96.3744 39.132 96.3744C40.219 96.3744 41.3061 96.1026 42.2724 95.6195C43.2084 95.1363 44.0237 94.472 44.5673 93.6265L44.6578 93.5058L45.8053 94.4116L45.7449 94.5324C45.1108 95.5893 44.1445 96.4348 42.9971 97.0085C41.8194 97.6124 40.4606 97.9445 39.132 97.9445C36.7767 97.9445 34.7234 97.0085 33.2438 95.4987C31.734 93.9587 30.8281 91.8148 30.8281 89.4293C30.8281 87.0438 31.734 84.8999 33.2438 83.3599C34.7234 81.8501 36.7767 80.9141 39.132 80.9141C40.4304 80.9141 41.6685 81.216 42.7857 81.7596Z" fill="#EDE4D7"/>
<path fill-rule="evenodd" clip-rule="evenodd" d="M116.65 84.724V97.7686H115.141V81.0703L126.494 94.1149V81.0703H128.004V97.7385L116.65 84.724Z" fill="#EDE4D7"/>
<path fill-rule="evenodd" clip-rule="evenodd" d="M49.9718 96.2589H58.9098V97.7687H48.4922V81.0703H50.002L49.9718 96.2589ZM69.7501 95.2624C70.7466 94.2659 71.1391 92.8467 71.1391 91.6389V81.0703H72.6489V91.8805C72.6489 93.2997 72.0752 95.1114 70.7466 96.3796C69.7199 97.3761 68.2403 98.0706 66.2474 98.0706C64.2544 98.0706 62.7748 97.3761 61.7482 96.3796C60.4196 95.0812 59.8156 93.2997 59.8156 91.8805V81.0703H61.3254V91.6389C61.3254 92.8467 61.718 94.2659 62.7447 95.2624C63.5297 96.0475 64.6772 96.591 66.2776 96.591C67.8176 96.5608 68.965 96.0475 69.7501 95.2624ZM85.7539 96.591C84.7575 97.4063 83.3383 97.7687 81.5869 97.7687H76.1214V81.0703H81.6775C83.1571 81.0703 84.3347 81.4629 85.15 82.1876C85.9955 82.9425 86.4484 83.9993 86.4484 85.2675C86.4484 86.0224 86.2069 86.8981 85.6935 87.6228C85.3312 88.1664 84.8179 88.6193 84.2139 88.9514C84.9386 89.1628 85.6935 89.6158 86.2673 90.3103C86.8108 91.0048 87.1731 91.9106 87.1731 93.0883C87.2033 94.6887 86.6598 95.8361 85.7539 96.591ZM83.9724 87.4718C84.5763 86.8981 84.9386 86.113 84.9386 85.2977C84.9386 84.4523 84.6669 83.7276 84.0931 83.2444C83.5496 82.7915 82.7645 82.5197 81.7077 82.5197H77.6312V88.4381H81.7077C82.5834 88.4079 83.3684 88.0456 83.9724 87.4718ZM83.9422 90.3707C82.8551 89.8875 81.3453 89.7969 79.594 89.7969H77.601V96.289H79.594C81.4359 96.289 82.9457 96.289 84.0026 95.8663C85.0292 95.4738 85.6029 94.7189 85.6029 93.1789C85.6331 91.6993 84.999 90.8538 83.9422 90.3707ZM99.1911 84.724V97.7687H97.6813V81.0703L109.035 94.1451V81.1005H110.545V97.7687L99.1911 84.724Z" fill="#EDE4D7"/>
<path d="M0 1.10547H9.39092C13.1956 1.10547 16.4568 1.83017 19.1744 3.24938C21.892 4.66858 23.9755 6.66151 25.3947 9.16777C26.814 11.674 27.5085 14.5426 27.5085 17.7132C27.5085 20.914 26.814 23.7826 25.3947 26.2888C23.9755 28.7951 21.892 30.8182 19.1442 32.2676C16.3964 33.717 13.1352 34.4417 9.36073 34.4417H0V1.10547ZM9.39092 32.0563C12.6219 32.0563 15.3999 31.4222 17.6948 30.1539C19.9897 28.8857 21.7712 27.1645 22.9791 24.9904C24.1869 22.8163 24.7908 20.4006 24.7908 17.683C24.7908 14.9956 24.1869 12.5799 23.0093 10.4058C21.8014 8.2619 20.0501 6.54073 17.725 5.3027C15.3999 4.06467 12.6219 3.43055 9.39092 3.43055H2.62704V31.9959H9.39092V32.0563Z" fill="#EDE4D7"/>
<path d="M30.0781 1.10547H50.9435V3.49094H32.7052V15.2673H46.8972V17.6528H32.7052V32.0865H51.5474V34.4719H30.0781V1.10547Z" fill="#EDE4D7"/>
</svg>
