<svg width="36" height="36" viewBox="0 0 36 36" fill="none" xmlns="http://www.w3.org/2000/svg">
<rect x="0.428571" y="0.428571" width="35.1429" height="35.1429" rx="17.5714" stroke="#EDE4D7" stroke-width="0.857143"/>
<path d="M12.7539 9.51465V9.51562C12.8067 9.51827 12.8601 9.51777 12.8936 9.51758C12.9324 9.51735 12.9581 9.51719 12.9814 9.51855C13.0227 9.52099 13.0404 9.52626 13.0527 9.53223C13.0701 9.54066 13.169 9.5954 13.3066 9.88477L13.3682 10.0244C13.5622 10.5014 13.8919 11.3236 14.1895 12.0615C14.4785 12.7781 14.7514 13.451 14.8232 13.5967V13.5977C14.8684 13.6893 14.8914 13.7586 14.8975 13.8164C14.9001 13.8414 14.8995 13.8677 14.8945 13.8965L14.8623 13.9922C14.7355 14.2498 14.6776 14.3868 14.5781 14.5303L14.46 14.6807L14.4561 14.6855C14.2559 14.924 14.0859 15.1484 13.9316 15.3281L13.7822 15.4922L13.7803 15.4932C13.6766 15.5989 13.475 15.7974 13.376 16.0693C13.2605 16.3868 13.3048 16.7242 13.499 17.0645V17.0635C13.7621 17.526 14.6312 18.9756 15.9316 20.2412L16.1973 20.4912C17.5852 21.7553 18.8329 22.378 19.5459 22.7002L20.0654 22.9346C20.3323 23.0712 20.6264 23.1738 20.9346 23.1357C21.263 23.0952 21.5036 22.9099 21.6865 22.6963C21.9197 22.424 22.653 21.5465 23.0557 20.9902L23.2051 20.7744C23.2601 20.6903 23.2984 20.657 23.3145 20.6455C23.3253 20.6377 23.3269 20.6388 23.3281 20.6387C23.3361 20.6378 23.3628 20.6371 23.4229 20.6514L23.665 20.7305H23.666C23.85 20.7986 24.5013 21.1108 25.2021 21.4561L26.8066 22.2588H26.8076C27.0713 22.3933 27.2287 22.4643 27.3711 22.5439C27.4311 22.5775 27.4654 22.6019 27.4844 22.6162C27.487 22.633 27.4925 22.6574 27.4951 22.6914C27.503 22.7935 27.5026 22.9387 27.4873 23.1201C27.4644 23.3915 27.4085 23.7273 27.3057 24.0967L27.1865 24.4756C27.0477 24.8717 26.6015 25.3278 25.998 25.7227C25.4792 26.0621 24.9374 26.2966 24.5732 26.3857L24.4277 26.415C23.76 26.5161 22.9621 26.5616 22.0908 26.3506L21.7129 26.2441C21.2099 26.081 20.6038 25.8782 19.8711 25.584L19.0947 25.2568C15.1216 23.5062 12.3429 19.7011 11.5342 18.5381L11.3105 18.2148L11.3057 18.209V18.208C11.1845 18.0426 10.7292 17.4213 10.3047 16.5635C9.87653 15.6983 9.50008 14.6329 9.5 13.5771C9.5 11.7011 10.33 10.6801 10.8223 10.1357L11.0088 9.93066C11.3248 9.57733 11.6842 9.5008 11.8789 9.5L12.7539 9.51465Z" stroke="#EDE4D7"/>
</svg>
