<svg width="17" height="16" viewBox="0 0 17 16" fill="none" xmlns="http://www.w3.org/2000/svg">
<path d="M8.13723 0.236495C8.28562 -0.0788317 8.71438 -0.0788317 8.86277 0.236495L11.0215 4.82372C11.0804 4.94894 11.1943 5.03573 11.3261 5.05581L16.1532 5.7914C16.485 5.84197 16.6175 6.26961 16.3774 6.51505L12.8845 10.0857C12.7891 10.1832 12.7456 10.3236 12.7681 10.4612L13.5927 15.5031C13.6494 15.8497 13.3025 16.114 13.0057 15.9503L8.68825 13.5699C8.5704 13.5049 8.4296 13.5049 8.31175 13.5699L3.99427 15.9503C3.69749 16.114 3.35062 15.8497 3.4073 15.5031L4.23187 10.4612C4.25437 10.3236 4.21087 10.1832 4.11552 10.0857L0.622609 6.51505C0.382506 6.26961 0.514998 5.84197 0.846813 5.7914L5.6739 5.05581C5.80566 5.03573 5.91957 4.94894 5.97849 4.82372L8.13723 0.236495Z" fill="#A4937B"/>
</svg>
