<svg width="36" height="36" viewBox="0 0 36 36" fill="none" xmlns="http://www.w3.org/2000/svg">
<rect x="0.428571" y="0.428571" width="35.1429" height="35.1429" rx="17.5714" stroke="#EDE4D7" stroke-width="0.857143"/>
<path fill-rule="evenodd" clip-rule="evenodd" d="M6.83699 17.5182L6.82429 17.5232C6.46306 17.6651 6.20564 17.7929 6.032 17.901C6.25115 17.9968 6.56296 18.0965 7.00214 18.2328L7.00474 18.2336L7.00669 18.2342C7.14855 18.2783 7.2998 18.3252 7.45541 18.3752C7.96101 18.5374 8.54792 18.7115 9.09091 18.8459C9.65348 18.9852 10.1025 19.0647 10.3617 19.0703C10.7732 19.079 11.3316 18.9108 12.0625 18.4153L12.0681 18.4115C14.8275 16.5725 16.9218 15.1868 18.3495 14.2551C19.0627 13.7897 19.613 13.4354 19.9979 13.1939C20.1896 13.0737 20.3458 12.978 20.4629 12.9095C20.5207 12.8757 20.5765 12.8442 20.626 12.8183L20.6288 12.8168C20.6504 12.8053 20.7664 12.7432 20.8984 12.7136C20.9006 12.7131 20.903 12.7126 20.9055 12.712C20.9689 12.6977 21.1271 12.6621 21.3044 12.6635C21.5007 12.665 21.8013 12.7118 22.0654 12.9436L21.5046 13.5664C21.3862 13.4625 21.2114 13.498 21.0852 13.5263C21.0562 13.5328 20.9572 13.587 20.7881 13.689C20.7466 13.714 20.7009 13.7419 20.6509 13.7727C19.6482 14.3905 16.9447 16.167 12.5403 19.1022C11.7319 19.6503 10.9996 19.9174 10.3435 19.9034C9.62016 19.888 8.2288 19.4996 7.19447 19.1677C7.04271 19.119 6.89468 19.073 6.7518 19.0287C5.70049 18.7023 4.92804 18.4625 5.00533 17.8539C5.05106 17.4937 5.55341 17.1254 6.51238 16.7489C12.418 14.2087 16.3559 12.534 18.3263 11.7249C23.9521 9.4147 25.1211 9.01339 25.883 9.00014C26.0506 8.99723 26.4253 9.03823 26.668 9.23267C26.873 9.39685 26.9294 9.61863 26.9563 9.77429C26.9833 9.92995 27.0169 10.2846 26.9902 10.5616C26.6854 13.7241 25.3662 21.3986 24.6951 24.9406C24.4111 26.4394 23.852 26.9419 23.3107 26.9911C22.3791 27.0757 21.625 26.545 20.7857 25.9542C20.5651 25.799 20.3387 25.6396 20.1015 25.4861C19.1708 24.8838 18.4515 24.4002 17.7303 23.9153C17.0699 23.4713 16.4079 23.0262 15.5807 22.488C13.8593 21.3681 14.5799 20.6822 15.5408 19.7677C15.6963 19.6196 15.8582 19.4656 16.017 19.3027C16.0879 19.2301 16.4346 18.9119 16.9233 18.4633C18.1585 17.3295 20.3012 15.3628 21.1928 14.4215C21.2203 14.3925 21.2466 14.3644 21.2717 14.3373C21.274 14.3348 21.2764 14.3323 21.2787 14.3297C21.4685 14.1245 21.5847 13.9798 21.5989 13.92C21.6115 13.8672 21.6231 13.6704 21.5046 13.5664L22.0654 12.9436C22.3327 13.1781 22.4109 13.4742 22.4359 13.6402C22.4609 13.8068 22.4527 13.9755 22.4207 14.1103C22.3771 14.2936 22.2784 14.4349 22.2485 14.4776L22.2463 14.4808C22.198 14.5501 22.1417 14.6199 22.0869 14.6844C21.9758 14.815 21.83 14.9712 21.6657 15.1403C21.3345 15.4809 20.8899 15.9128 20.4061 16.3727C19.4375 17.2934 18.2836 18.3526 17.5005 19.0713L17.4988 19.0729C17.2539 19.2976 17.0457 19.4888 16.8903 19.6324C16.8125 19.7042 16.7492 19.763 16.7016 19.8077C16.6778 19.8301 16.6589 19.848 16.6448 19.8616C16.6324 19.8734 16.6266 19.8792 16.6252 19.8805C16.4555 20.0546 16.2839 20.2179 16.1312 20.3633M16.1266 20.3676C15.8768 20.6054 15.6897 20.785 15.5507 20.9513C15.4275 21.0988 15.3936 21.1772 15.3852 21.2038C15.3821 21.1964 15.3818 21.1937 15.3822 21.1957C15.3826 21.1974 15.3832 21.2012 15.3832 21.2061C15.3833 21.2108 15.383 21.2121 15.383 21.2121C15.3833 21.2104 15.384 21.2077 15.3852 21.2038C15.3892 21.2133 15.3978 21.2308 15.4153 21.2567C15.4853 21.3603 15.6578 21.5402 16.0451 21.7922C16.8777 22.3339 17.5441 22.7819 18.2041 23.2256L18.2054 23.2265C18.9264 23.7113 19.6404 24.1913 20.5643 24.7892C20.8152 24.9516 21.053 25.1189 21.2701 25.2717L21.2757 25.2757C22.1782 25.9109 22.6693 26.2125 23.2333 26.1613C23.2426 26.1608 23.3111 26.1579 23.4247 26.0088C23.56 25.831 23.7362 25.4692 23.8654 24.7874C24.5371 21.2424 25.8492 13.6027 26.1499 10.4827C26.1577 10.4023 26.1579 10.2907 26.1508 10.171C26.1438 10.0521 26.1315 9.95608 26.1244 9.91486C26.1212 9.89658 26.1184 9.88299 26.1158 9.8723C26.0994 9.86598 26.0777 9.85917 26.0512 9.85292C26.0185 9.84519 25.9848 9.83986 25.9542 9.83669C25.9227 9.83343 25.9024 9.83327 25.8979 9.83335C25.6686 9.83733 25.3004 9.8962 24.2165 10.2845C23.1472 10.6676 21.4664 11.338 18.6505 12.4943C16.6877 13.3003 12.7562 14.9722 6.84952 17.5129L6.83699 17.5182M20.8558 13.5357C20.8558 13.5357 20.8539 13.5384 20.8525 13.5403C20.8623 13.5241 20.8656 13.5216 20.8558 13.5357Z" fill="#EDE4D7"/>
</svg>
