<svg width="28" height="28" viewBox="0 0 28 28" fill="none" xmlns="http://www.w3.org/2000/svg">
    <path d="M13.5 16.8124V17.3124H14.5V16.8124H13.5ZM14.5 7.02608V6.52608H13.5V7.02608H14.5ZM16.7535 9.99696L17.1029 10.3546L17.8182 9.65577L17.4688 9.29813L16.7535 9.99696ZM14.55 7.02608L14.1923 7.37549L14.55 7.02608ZM13.45 7.02608L13.8077 7.37549V7.37549L13.45 7.02608ZM10.5312 9.29813L10.1818 9.65577L10.8971 10.3546L11.2465 9.99696L10.5312 9.29813ZM7.5 16.8124V16.3124H6.5V16.8124H7.5ZM21.5 16.8124V16.3124H20.5V16.8124H21.5ZM19.726 20.5326L19.4948 20.0893H19.4948L19.726 20.5326ZM20.7457 19.4889L21.1933 19.7117L20.7457 19.4889ZM7.25432 19.4889L6.80671 19.7117L7.25432 19.4889ZM8.27402 20.5326L8.04281 20.9759H8.04281L8.27402 20.5326ZM14 16.8124H14.5V7.02608H14H13.5V16.8124H14ZM17.1111 9.64754L17.4688 9.29813L14.9076 6.67666L14.55 7.02608L14.1923 7.37549L16.7535 9.99696L17.1111 9.64754ZM13.45 7.02608L13.0924 6.67667L10.5312 9.29813L10.8889 9.64754L11.2465 9.99696L13.8077 7.37549L13.45 7.02608ZM14.55 7.02608L14.9076 6.67666C14.4077 6.16499 13.5923 6.16499 13.0924 6.67667L13.45 7.02608L13.8077 7.37549C13.9153 7.26538 14.0847 7.26538 14.1923 7.37549L14.55 7.02608ZM7 16.8124H6.5V16.9716H7H7.5V16.8124H7ZM10.7333 20.7929V21.2929H17.2667V20.7929V20.2929H10.7333V20.7929ZM21 16.9716H21.5V16.8124H21H20.5V16.9716H21ZM17.2667 20.7929V21.2929C17.9116 21.2929 18.4261 21.2933 18.8409 21.2586C19.2618 21.2234 19.6244 21.1495 19.9572 20.9759L19.726 20.5326L19.4948 20.0893C19.3285 20.176 19.1148 20.2322 18.7575 20.2621C18.3941 20.2925 17.9285 20.2929 17.2667 20.2929V20.7929ZM21 16.9716H20.5C20.5 17.6485 20.4996 18.1267 20.4698 18.5005C20.4404 18.8687 20.3848 19.0918 20.2981 19.2661L20.7457 19.4889L21.1933 19.7117C21.3609 19.3751 21.4324 19.0083 21.4666 18.5801C21.5004 18.1573 21.5 17.6324 21.5 16.9716H21ZM19.726 20.5326L19.9572 20.9759C20.4912 20.6974 20.9232 20.2542 21.1933 19.7117L20.7457 19.4889L20.2981 19.2661C20.1207 19.6223 19.8388 19.9098 19.4948 20.0893L19.726 20.5326ZM7 16.9716H6.5C6.5 17.6324 6.49963 18.1573 6.53338 18.5801C6.56756 19.0083 6.63913 19.3751 6.80671 19.7117L7.25432 19.4889L7.70192 19.2661C7.61518 19.0918 7.5596 18.8687 7.5302 18.5005C7.50037 18.1267 7.5 17.6485 7.5 16.9716H7ZM10.7333 20.7929V20.2929C10.0715 20.2929 9.60589 20.2925 9.24247 20.2621C8.88524 20.2322 8.67154 20.176 8.50523 20.0893L8.27402 20.5326L8.04281 20.9759C8.37563 21.1495 8.73819 21.2234 9.15914 21.2586C9.57389 21.2933 10.0884 21.2929 10.7333 21.2929V20.7929ZM7.25432 19.4889L6.80671 19.7117C7.07676 20.2542 7.50879 20.6974 8.04281 20.9759L8.27402 20.5326L8.50523 20.0893C8.16117 19.9098 7.87928 19.6223 7.70192 19.2661L7.25432 19.4889Z" fill="#EDE4D7"/>
</svg>